<svg width="44" height="44" viewBox="0 0 44 44" fill="none" xmlns="http://www.w3.org/2000/svg">
<g opacity="0.64">
<path d="M11.5552 7.65399C15.8157 10.7821 20.3983 17.1246 22.0808 20.5284C23.7634 17.1249 28.3457 10.7821 32.6063 7.65399C35.6804 5.39686 40.6613 3.65043 40.6613 9.20768C40.6613 10.3175 40.0107 18.5311 39.629 19.8645C38.3026 24.5005 33.469 25.6829 29.1695 24.9672C36.685 26.2182 38.5969 30.3619 34.4679 34.5056C26.6263 42.3752 23.1973 32.531 22.3182 30.0086C22.1571 29.5462 22.0818 29.3298 22.0806 29.5138C22.0795 29.3298 22.0042 29.5462 21.8431 30.0086C20.9644 32.531 17.5354 42.3755 9.69334 34.5056C5.56436 30.3619 7.47617 26.218 14.9918 24.9672C10.6921 25.6829 5.85851 24.5005 4.53224 19.8645C4.15063 18.531 3.5 10.3174 3.5 9.20768C3.5 3.65043 8.48099 5.39686 11.555 7.65399H11.5552Z" fill="white"/>
</g>
</svg>
