<svg fill="none" height="68" viewBox="0 0 104 68" width="104" xmlns="http://www.w3.org/2000/svg" xmlns:xlink="http://www.w3.org/1999/xlink"><linearGradient id="a" gradientUnits="userSpaceOnUse" x1="34.2673" x2="34.2673" y1="42" y2="68"><stop offset="0" stop-color="#37a140"/><stop offset="1" stop-color="#63d36c"/></linearGradient><linearGradient id="b"><stop offset="0" stop-color="#2d8f35"/><stop offset="1" stop-color="#63d36c"/></linearGradient><linearGradient id="c" gradientUnits="userSpaceOnUse" x1="25.7679" x2="15.9704" xlink:href="#b" y1="46" y2="67.614"/><linearGradient id="d" gradientUnits="userSpaceOnUse" x1="103.07" x2="50.2673" y1="49" y2="49"><stop offset="0" stop-color="#37a140"/><stop offset=".255025" stop-color="#63d36c"/><stop offset=".812036" stop-color="#1e5b23"/><stop offset="1" stop-color="#63d36c"/></linearGradient><linearGradient id="e" gradientUnits="userSpaceOnUse" x1="42.7669" x2="52.5639" xlink:href="#b" y1="46.0001" y2="67.6132"/><linearGradient id="f"><stop offset="0" stop-color="#37a140"/><stop offset=".335439" stop-color="#39a342"/><stop offset="1" stop-color="#63d36c"/></linearGradient><linearGradient id="g" gradientUnits="userSpaceOnUse" x1="11.2656" x2=".265608" xlink:href="#f" y1="52.5" y2="68.0001"/><linearGradient id="h" gradientUnits="userSpaceOnUse" x1="57.2691" x2="68.2691" xlink:href="#f" y1="52.5" y2="68.0001"/><linearGradient id="i"><stop offset="0" stop-color="#fff" stop-opacity=".24"/><stop offset="1" stop-color="#fff" stop-opacity="0"/></linearGradient><linearGradient id="j" gradientUnits="userSpaceOnUse" x1="65.2673" x2="65.2673" xlink:href="#i" y1="18" y2="36"/><linearGradient id="k" gradientUnits="userSpaceOnUse" x1="64.2673" x2="64.2673" y1="0" y2="14"><stop offset="0" stop-color="#fff" stop-opacity=".16"/><stop offset="1" stop-color="#fff" stop-opacity="0"/></linearGradient><linearGradient id="l" gradientUnits="userSpaceOnUse" x1="76.7659" x2="76.7659" xlink:href="#i" y1="9" y2="30"/><path d="m25.98 45.3408c.1759-.8207.8034-1.4698 1.6176-1.6734 4.3791-1.0947 8.9604-1.0947 13.3395 0 .8142.2036 1.4417.8527 1.6175 1.6734l.5252 2.4506c1.4351 6.6972 1.1556 13.6483-.8125 20.2086h-16c-1.9681-6.5603-2.2475-13.5114-.8124-20.2086z" fill="url(#a)"/><path d="m13.638 48.8447c3.5735-2.6114 7.9613-3.7943 12.3134-3.375l-.496 2.3223c-1.4351 6.6969-1.1565 13.6478.8115 20.208h-14l-.4776-1.4707c-1.6376-5.0389-1.6103-10.4711.0782-15.4932l.0839-.25c.2056-.6113.5956-1.1438 1.1163-1.5244z" fill="url(#c)"/><path clip-rule="evenodd" d="m82.8669 30c2.2403 0 3.3612-.0004 4.2168.4355.7525.3835 1.3646.9956 1.7481 1.7481.2905.5701.3846 1.2582.417 2.3164h5.3105c6.3187.0001 10.4287 6.6502 7.6027 12.3018l-1.447 2.8935c-1.779 3.5572-5.4149 5.8047-9.392 5.8047h-2.4404c-.2383 1.7029-.6232 3.0792-1.25 4.3096-1.4381 2.8224-3.7333 5.1175-6.5557 6.5556-3.2086 1.6348-7.409 1.6348-15.8096 1.6348h-15v-31.5996c0-2.2402-.0004-3.3612.4356-4.2168.3834-.7525.9955-1.3646 1.748-1.7481.8557-.4359 1.9766-.4355 4.2168-.4355zm6.4004 14c0 2.5142-.0011 4.6522-.0449 6.5h2.1006c2.0831 0 3.9872-1.177 4.9189-3.04l1.4473-2.8946c1.1636-2.3271-.5281-5.0653-3.1299-5.0654h-5.292z" fill="url(#d)" fill-rule="evenodd"/><path d="m54.8963 48.8439c-3.5736-2.6115-7.9612-3.7934-12.3134-3.3741l.497 2.3213c1.4351 6.6972 1.1556 13.6487-.8125 20.209h14l.4785-1.4717c1.6375-5.0387 1.6094-10.4712-.0791-15.4931l-.0839-.249c-.2056-.6114-.5955-1.1449-1.1163-1.5254z" fill="url(#e)"/><path d="m11.4716 52.333c-1.2843 4.6514-1.1802 9.5883.3174 14.1963l.4775 1.4707h-7.32714c-.32512 0-.64851-.0473-.95996-.1406-4.496943-1.3474-5.42063-7.3086-1.54199-9.9532l1.33008-.9062z" fill="url(#g)"/><path d="m57.0631 52.333c1.2843 4.6514 1.1802 9.5883-.3174 14.1963l-.4775 1.4707h7.3271c.3252 0 .6485-.0473.96-.1406 4.4969-1.3474 5.4206-7.3086 1.542-9.9532l-1.3301-.9062z" fill="url(#h)"/><circle cx="65.2673" cy="27" fill="url(#j)" r="9"/><circle cx="64.2673" cy="7" fill="url(#k)" r="7"/><path d="m76.7673 9c5.799 0 10.5 4.701 10.5 10.5s-4.701 10.5-10.5 10.5c-.9997 0-1.9658-.1433-2.8818-.4043.2472-.822.3818-1.6931.3818-2.5957 0-4.5979-3.4481-8.3878-7.8994-8.9307.6981-5.1219 5.0859-9.0693 10.3994-9.0693z" fill="url(#l)"/></svg>