<svg fill="none" height="24" viewBox="0 0 24 24" width="24" xmlns="http://www.w3.org/2000/svg" xmlns:xlink="http://www.w3.org/1999/xlink"><clipPath id="a"><path d="m0 0h24v24h-24z"/></clipPath><g clip-path="url(#a)"><path clip-rule="evenodd" d="m12 0c6.623 0 12 5.37703 12 12 0 6.623-5.377 12-12 12-6.62297 0-12-5.377-12-12 0-6.62297 5.37703-12 12-12zm-3.75173 18.744v-9.37134h-3.1155v9.37134zm11.23223 0v-5.3741c0-2.8785-1.5369-4.2176-3.5864-4.2176-1.6526 0-2.3928.9089-2.8073 1.5472v-1.32684h-3.11471c.04131.87924 0 9.37134 0 9.37134h3.11471v-5.2336c0-.2802.0201-.5602.1027-.7604.2247-.5595.7376-1.139 1.5982-1.139 1.1266 0 1.5779.8597 1.5779 2.1189v5.0141zm-12.76894-13.89009c-1.06594 0-1.76236.70078-1.76236 1.61929 0 .89916.67524 1.61925 1.72111 1.61925h.02011c1.08633 0 1.7625-.72009 1.7625-1.61925-.02015-.91851-.67612-1.61929-1.74136-1.61929z" fill="#fff" fill-rule="evenodd" opacity=".48"/></g></svg>