<svg fill="none" height="44" viewBox="0 0 44 44" width="44" xmlns="http://www.w3.org/2000/svg" xmlns:xlink="http://www.w3.org/1999/xlink"><clipPath id="a"><path d="m6 6h32v32h-32z"/></clipPath><g clip-path="url(#a)"><path clip-rule="evenodd" d="m22 6c8.8306 0 16 7.1694 16 16s-7.1694 16-16 16-16-7.1694-16-16 7.1694-16 16-16zm-5.0023 24.9919v-12.495h-4.154v12.495zm14.9762 0v-7.1653c0-3.8381-2.0491-5.6235-4.7818-5.6235-2.2034 0-3.1904 1.2118-3.743 2.0629v-1.7691h-4.153c.0551 1.1723 0 12.495 0 12.495h4.1529v-6.9781c0-.3735.0269-.7469.1369-1.0138.2997-.7459.9836-1.5187 2.131-1.5187 1.5021 0 2.1039 1.1463 2.1039 2.8253v6.6853zm-17.0252-18.52c-1.4212 0-2.3498.9343-2.3498 2.159 0 1.1989.9004 2.159 2.2949 2.159h.0268c1.4484 0 2.35-.9601 2.35-2.159-.0269-1.2247-.9015-2.159-2.3219-2.159z" fill="#fff" fill-rule="evenodd" opacity=".48"/></g></svg>