<svg fill="none" height="64" viewBox="0 0 243 64" width="243" xmlns="http://www.w3.org/2000/svg" xmlns:xlink="http://www.w3.org/1999/xlink"><clipPath id="a"><path d="m0 0h243v64h-243z"/></clipPath><g clip-path="url(#a)" fill="#fff"><path d="m17.0425 36.803h-17.0137524c0 .0857 0 .1643.007197.25 0 .1571.021591.3142.028788.4785 0 .0714.007197.1357.0143941.2071.014394.1857.0287883.3643.0431823.55 0 .0428.007197.0857.014394.1214.021591.2071.043182.4071.064773.607v.0572c.028788.2214.057576.4357.086364.6571v.0071c.194319 1.3427.489397 2.6783.87804 3.9924v.0143c.06477.2071.12235.4142.19432.6142 0 .0143.00719.0214.01439.0357s.0072.0214.01439.0357c.05758.1857.12235.3714.18713.55.01439.0428.03598.0928.05037.1428.05758.1571.11516.3214.17273.4785.02879.0714.05758.1429.07917.2143.05038.1285.10076.2642.15833.3928.04319.1.07917.2.12235.3.04319.1.08637.2071.12955.3071.05758.1285.10796.25.16553.3785.03599.0714.06477.15.10076.2214.07197.15.13674.3.20871.45.02159.05.04319.0928.07197.1428.08637.1714.16553.3428.2519.5142.01439.0286.02879.05.04318.0786.10076.1857.19432.3714.29508.5571 0 .0071.0072.0143.01439.0214.02159.0357.04318.0786.06478.1143l14.53079-8.6919.0504-.0357c-.5758-1.1999-.9357-2.4783-1.0652-3.771z"/><path d="m.827637 44.545.007197.0143.546976-.1714z"/><path d="m21.224 44.5522-.0432.0428-11.99025 11.8987c.06477.0571.12235.1142.18712.1714.10796.1.22311.2.33826.3.05758.0499.11516.1071.17273.1499.13674.1143.27344.2286.41024.3429.036.0285.072.0642.1079.0928.1512.1286.3095.25.4679.3714.0215.0143.0431.0286.0575.05.1728.1357.3383.2642.511.3928.0072 0 .0144.0071.0216.0143.7197.5356 1.4682 1.0356 2.2455 1.507.0288.0142.0504.0285.0791.0499.144.0858.2951.1715.4391.2572.0935.05.1799.1.2734.1499.0864.05.1728.0929.2591.1429.1584.0857.3095.1714.4678.25.0216.0142.0432.0214.0648.0357.439.2285.8781.4356 1.3243.6356l.4246-1.0213 6.0311-14.5269.0216-.0572c-.6549-.3499-1.2883-.7642-1.8784-1.2427z"/><path d="m19.9789 43.3666c-.1295-.1429-.2519-.2929-.3742-.4357-.108-.1286-.2087-.2643-.3095-.4-.1152-.1571-.2303-.3071-.3311-.4642-.1079-.1571-.2087-.3214-.3094-.4785l-14.55241 8.699c.22311.3714.45342.7285.69092 1.0785.0072.0143.01439.0285.02159.0357 0 0 0 .0071.0072.0143.00719.0143.01439.0214.02159.0357.02159.0285.03598.0571.05757.0857.2519.3714.51099.7356.77728 1.0927 0 .0072.0144.0143.0144.0214 0 .0072.01439.0143.01439.0215.11515.15.2303.3071.35265.4571.0144.0214.02879.0428.05038.0571.12235.1571.2519.3143.37425.4642.02879.0357.05757.0715.09356.1072l.34545.4071c.05038.0571.10076.1142.15114.1714.10076.1142.20152.2285.30228.3357.05757.0642.11515.1214.17272.1856.02879.0286.05038.0572.07917.0857.07197.0786.15114.1572.22311.2429.02879.0285.06477.0643.09356.0928.12955.1357.26629.2714.40303.4071l12.00467-11.9129c-.1368-.1357-.2663-.2786-.3959-.4143z"/><path d="m35.8915 44.545c-.1296.1071-.2663.2071-.403.3071l.0288.05 8.7515 14.4198c.4031-.2642.8061-.5356 1.1947-.8213.8493-.6214 1.6697-1.2927 2.4542-2.0141l-11.9902-11.8986-.0504-.05z"/><path d="m43.1677 60.0076s.0144-.0072.0216-.0143c0 0-.0144 0-.0216.0071z"/><path d="m43.1821 60.0004c.036-.0214.0791-.0428.1151-.0642-.036.0214-.072.0428-.1151.0642z"/><path d="m43.1605 60.0154.0077-.0078z"/><path d="m43.1532 60.0147-.0215-.0357z"/><path d="m43.1677 60.0076s.0144 0 .0216-.0072c0 0-.0144 0-.0216.0072z"/><path d="m43.1461 60.0225.0077-.0078z"/><path d="m43.1608 60.015h-.0075l.015-.0074z"/><path d="m43.0021 59.4433-.295-.4856-8.1686-13.4557c-.1656.1-.3311.1857-.5038.2786-.1728.0928-.3455.1785-.5182.2571-1.569.7356-3.2675 1.1142-4.9732 1.1142-1.1155 0-2.231-.1572-3.3034-.4786-.1871-.0571-.3598-.1285-.547-.1928-.1799-.0643-.367-.1214-.5469-.1928l-6.0239 14.5198-.2375.5713-.2016.4857s.0288.0143.0504.0214c.0144 0 .036.0143.0504.0215h.0144c.1439.0571.2879.1071.4318.1642.1799.0714.3599.1357.5398.2071.0936.0358.1799.0715.2735.1072 1.8856.6642 3.8432 1.1213 5.8296 1.3855.0791.0072.1511.0215.2303.0286.0791.0071.1655.0143.2447.0286.1511.0143.3022.0357.4606.05.036 0 .0791 0 .1151.0071.1871.0143.3743.0357.5614.05.0648 0 .1295.0071.1943.0143.1655.0143.3311.0214.4966.0286.1008 0 .2015.0071.3023.0142.1295 0 .2591.0072.3958.0143h.5686.1367c1.5834 0 3.1739-.1285 4.7429-.3928 0 0 .0503-.0071.0791-.0143.1656-.0285.3311-.0571.4966-.0928.0936-.0214.1871-.0357.2807-.0572.0936-.0214.1943-.0428.2879-.0571.1583-.0357.3238-.0714.4822-.1071.0288 0 .0576-.0143.0863-.0215 2.3823-.5499 4.6853-1.4069 6.8516-2.5354.1439-.0714.2807-.1571.4174-.2357.1656-.0928.3383-.1857.5038-.2785.1152-.0643.2303-.1286.3455-.1928 0 0 .0144-.0072.0216-.0143.036-.0215.0719-.0429.1151-.0643l-.2951-.4928z"/><path d="m21.2312 26.7684c.1295-.1071.2662-.2071.403-.3071l-.0288-.05-8.7516-14.4198c-.403.2642-.806.5356-1.2019.8213-.8492.6214-1.66247 1.2927-2.45415 2.0141l11.99025 11.8987.0504.0499z"/><path d="m8.36287 15.6197c-.13674.1357-.26629.2785-.39583.4142-.12955.1357-.26629.2714-.39584.4142-.88523.9499-1.69849 1.9498-2.42539 2.9854-.03599.05-.07197.1-.10796.15-.07916.1214-.16553.2357-.24469.3571-.08637.1214-.16554.25-.2447.3785-.02879.0429-.05758.0929-.08637.1357-2.76365 4.2853-4.239038 9.149-4.4333578 14.0628-.0071971.1928-.0143941.3785-.0143941.5713 0 .1929-.00719699.3785-.00719699.5714h16.97775889c0-.1929.0216-.3785.0288-.5714.0072-.1928.0144-.3785.0288-.5713.2231-2.1927 1.0723-4.3353 2.5621-6.1351.1224-.1428.2591-.2857.3886-.4214.1296-.1428.2519-.2856.3887-.4213z"/><path d="m43.3979 11.4344s-.0503-.0286-.0719-.0428c-.1512-.0929-.3023-.1786-.4534-.2643-.0864-.05-.1728-.1-.2663-.15-.0864-.05-.1799-.1-.2663-.15-.1511-.0857-.3095-.1642-.4606-.2499-.0216-.0143-.0504-.0286-.072-.0357-.9932-.5143-2.0152-.97137-3.0587-1.36418-.0288-.01428-.0576-.02143-.0792-.02857-.2303-.0857-.4534-.17141-.6837-.24997-1.8568-.64279-3.7712-1.09274-5.7216-1.34985-.0792-.01428-.1584-.02143-.2375-.02857-.0792-.00714-.1584-.01428-.2375-.02857-.1512-.01428-.3095-.03571-.4606-.04999-.0432 0-.0864 0-.1296-.01428-.1799-.01429-.367-.03571-.547-.04286-.0719 0-.1439-.00714-.2159-.01428-.1583-.00714-.3166-.02143-.475-.02857-.0863 0-.1655 0-.2519-.00714v16.82673.0642c.8709.0929 1.7417.2714 2.5766.5571l12.5228-12.4272c-.4678-.3214-.9356-.6285-1.4178-.9213z"/><path d="m27.982 7.32773c-.1944 0-.3815 0-.5758.01428-1.2019.05-2.3966.17141-3.5913.36425-.0288 0-.0504.00714-.0792.01428-.1655.02857-.331.05714-.4966.09285-.0935.01428-.1871.03571-.2807.05714-.1007.02142-.1943.04285-.295.06428-.1584.03571-.3239.07142-.4822.10713 0 0-.0576.01428-.0864.02142-2.3822.54994-4.6853 1.40699-6.8516 2.53544-.1439.0714-.2806.1571-.4174.2357-.1655.0928-.3382.1857-.5038.2785-.1223.0714-.2519.1357-.3742.2071-.0072 0-.0144.0072-.0288.0143-.0288.0215-.0648.0357-.1008.0572l.2951.4928 8.4637 13.9484c.1655-.1.3311-.1857.5038-.2785.1727-.0929.3455-.1786.5182-.2571 1.2091-.5714 2.4973-.9285 3.8-1.0571.1943-.0214.3814-.0357.5758-.0428.1943-.0072.3814-.0215.5757-.0215v-16.86235c-.1943 0-.3814.00714-.5757.01428z"/><path d="m57.0867 34.2676c-.0072-.15-.0144-.3-.0288-.4571 0-.0786-.0072-.15-.0144-.2286-.0144-.1785-.0288-.3571-.0432-.5356 0-.0429-.0072-.0929-.0144-.1357-.0215-.2-.0431-.4-.0647-.5928 0-.0143 0-.0286 0-.05 0-.0071 0-.0143 0-.0214-.0288-.2143-.0576-.4285-.0864-.6428 0 0 0-.0143 0-.0214-.1943-1.3427-.4894-2.6712-.878-3.9853 0-.0071 0-.0143-.0072-.0286-.0648-.2-.1224-.4071-.1871-.607-.0072-.0286-.0144-.05-.0288-.0786-.0576-.1857-.1224-.3643-.1872-.5428-.0144-.05-.0359-.1-.0503-.15-.0576-.1571-.1152-.3142-.1728-.4714-.0288-.0714-.0575-.1499-.0863-.2214-.0504-.1285-.1008-.2571-.1512-.3856-.0431-.1-.0863-.2072-.1223-.3072-.0432-.0999-.0864-.1999-.1296-.2999-.0575-.1286-.1151-.2571-.1727-.3857-.0288-.0714-.0648-.1428-.1007-.2142-.072-.15-.144-.3072-.216-.4571-.0215-.0429-.0431-.0929-.0647-.1357-.0864-.1715-.1728-.3429-.2591-.5214-.0144-.0214-.0216-.05-.036-.0714-.1008-.1857-.1943-.3786-.3023-.5643 0 0 0-.0142-.0144-.0214-.4966-.8999-1.0363-1.7784-1.6265-2.614l-12.53 12.4344c.2879.8356.4678 1.6926.5614 2.5568h17.0209c0-.0857 0-.1643-.0072-.25z"/><path d="m40.1449 35.6603c0 .1928-.0144.3785-.0288.5713-.0072.1929-.0144.3786-.0288.5714-.2159 2.1926-1.0723 4.3352-2.5621 6.135-.1223.1429-.2591.2857-.3886.4214-.1296.1429-.2519.2857-.3887.4214l12.0046 11.913c.1368-.1357.2663-.2786.3959-.4143.1295-.1357.2663-.2714.3958-.4142.8852-.9571 1.6985-1.9569 2.4326-2.9925.0288-.0429.0576-.0786.0864-.1215.0863-.1285.1727-.2571.2663-.3856.0791-.1143.1511-.2286.2303-.3428.0359-.0572.0719-.1143.1079-.1715 2.7565-4.2923 4.2247-9.1561 4.4262-14.0627.0072-.1928.0144-.3785.0144-.5713 0-.1929.0072-.3786.0072-.5714h-16.9778z"/><path d="m62.1606 2.314c-3.1091-3.085373-8.1398-3.085373-11.2489 0-2.4758 2.45687-2.9724 6.13503-1.497 9.0847l-17.3232 17.1909c-2.9724-1.4641-6.6789-.9713-9.1546 1.4856-3.1091 3.0854-3.1091 8.0777 0 11.163 3.1091 3.0854 8.1398 3.0783 11.2489 0 2.4758-2.4568 2.9724-6.135 1.497-9.0847l17.3232-17.1909c2.9724 1.4641 6.6788.9713 9.1546-1.4856 3.1091-3.0853 3.1091-8.07763 0-11.163z"/><path d="m65.8599 29.5538c0-8.449 6.2254-14.4983 14.7754-14.4983 8.5501 0 14.7395 6.0493 14.7395 14.4983 0 8.4491-6.2254 14.4984-14.7395 14.4984-8.514 0-14.7754-6.0493-14.7754-14.4984zm23.3255 0c0-5.2494-3.3466-9.2061-8.5501-9.2061-5.2034 0-8.5932 3.9496-8.5932 9.2061 0 5.2566 3.3466 9.2062 8.5932 9.2062 5.2467 0 8.5501-3.9925 8.5501-9.2062z"/><path d="m98.5415 43.5523v-28.0326h13.2135c6.139 0 9.486 4.121 9.486 9.0347s-3.39 8.9918-9.486 8.9918h-7.197v9.9989h-6.0165zm16.5605-18.9979c0-2.3497-1.821-3.7853-4.196-3.7853h-6.355v7.5206h6.355c2.375 0 4.196-1.4284 4.196-3.7425z"/><path d="m123.947 43.5523v-28.0326h19.986v5.2494h-13.977v5.8851h13.675v5.2494h-13.675v6.385h13.977v5.2494h-19.986z"/><path d="m167.057 43.5523-13.466-18.2766v18.2766h-6.016v-28.0326h6.182l13.084 17.6052v-17.6052h6.017v28.0254h-5.801z"/><path d="m197.203 43.5523-1.778-4.7494h-12.113l-1.777 4.7494h-6.816l10.882-28.0254h7.535l10.882 28.0254zm-7.838-22.0618-4.404 12.0629h8.809z"/><path d="m205.586 43.5523v-28.0326h13.214c6.139 0 9.486 4.121 9.486 9.0347s-3.39 8.9918-9.486 8.9918h-7.197v9.9989h-6.009zm16.554-18.9979c0-2.3497-1.821-3.7853-4.196-3.7853h-6.355v7.5206h6.355c2.375 0 4.196-1.4284 4.196-3.7425z"/><path d="m230.985 43.5523v-28.0326h6.017v28.0254h-6.017z"/><path d="m236.939 61h-6.411v-8.9438h6.151v1.3837h-4.551v2.3296h4.164v1.3838h-4.164v2.4629h4.811z"/><path d="m220.338 61-3.301-8.9438h1.676l1.993 5.9731c.106.3174.207.639.304.9648.098.3217.161.5354.191.6412.004-.0127.01-.036.019-.0699.013-.0381.027-.0846.044-.1396.28-.9098.421-1.3753.426-1.3965l1.98-5.9731h1.67l-3.289 8.9438z"/><path d="m211.791 61h-1.606v-8.9438h1.606z"/><path d="m202.026 61h-1.599v-7.5601h-2.78v-1.3837h7.166v1.3837h-2.787z"/><path d="m194.115 61h-1.606l-.768-2.2661h-3.694l-.775 2.2661h-1.618l3.307-8.9438h1.885zm-5.643-3.5229h2.844l-.965-2.8438c-.258-.7533-.411-1.2103-.457-1.3711-.009.0339-.036.1185-.083.2539-.042.1312-.08.2518-.114.3618-.085.2412-.169.4951-.254.7617z"/><path d="m180.357 61h-1.606v-8.9438h1.606z"/><path d="m170.592 61h-1.599v-7.5601h-2.781v-1.3837h7.167v1.3837h-2.787z"/><path d="m160.84 61h-1.606v-8.9438h1.606z"/><path d="m145.73 61v-8.9438h1.917l4.044 7.1538c-.03-.6094-.045-1.1701-.045-1.6822v-5.4716h1.467v8.9438h-1.987l-3.967-7.084c.021.6221.031 1.1341.031 1.5361v5.5479z"/><path d="m139.609 61h-1.606v-8.9438h1.606z"/></g></svg>