<svg fill="none" height="42" viewBox="0 0 159 42" width="159" xmlns="http://www.w3.org/2000/svg" xmlns:xlink="http://www.w3.org/1999/xlink"><clipPath id="a"><path d="m0 0h159v42h-159z"/></clipPath><g clip-path="url(#a)"><path d="m11.1514 24.152h-11.1324791c0 .0562 0 .1078.0047092.164 0 .1031.0141274.2062.0188366.314 0 .0469.0047091.0891.0094183.136.0094183.1218.0188366.239.0282549.3609 0 .0281.0047092.0562.0094184.0796.0141277.136.0282547.2672.0423827.3984v.0375c.018836.1453.037673.2859.05651.4312v.0047c.127147.8812.320222 1.7576.574517 2.62v.0094c.042382.1359.080056.2719.127147.4031 0 .0094.004709.014.009418.0234.00471.0094.00471.0141.009419.0235.037673.1218.080055.2437.122438.3609.00942.0281.02355.0609.03296.0937.03768.1031.07535.2109.11302.314.01884.0469.03768.0938.0518.1406.03297.0844.06593.1734.10361.2578.02825.0656.0518.1312.08005.1969.02826.0656.05651.1359.08477.2015.03767.0844.07063.1641.10831.2484.02354.0469.04238.0984.06593.1453.04709.0984.08947.1969.13656.2953.01413.0328.02826.0609.04709.0937.05651.1125.10831.225.16482.3375.00942.0187.01884.0328.02826.0516.06593.1218.12715.2437.19307.3655 0 .0047.00471.0094.00942.0141.01413.0234.02826.0516.04238.075l9.50776-5.7041.033-.0234c-.3767-.7874-.6122-1.6264-.697-2.4747z" fill="#93d500"/><path d="m.541626 29.2326.004709.0094.357896-.1125z" fill="#93d500"/><path d="m13.8874 29.2374-.0283.0281-7.84543 7.8085c.04238.0375.08006.075.12244.1125.07064.0656.14598.1312.22133.1968.03767.0328.07535.0703.11302.0985.08947.0749.17895.1499.26842.2249.02355.0188.04709.0422.07064.061.09889.0843.20249.164.30609.2437.01413.0094.02826.0187.03768.0328.11302.089.22133.1734.33435.2578.00471 0 .00942.0047.01413.0094.47091.3515.96066.6796 1.46925.9889.01884.0094.03297.0188.0518.0328.09419.0563.19308.1125.28726.1687.06122.0329.11773.0657.17895.0985.05651.0328.11302.0609.16953.0937.1036.0563.20249.1125.30609.1641.01413.0093.02826.014.04235.0234.2873.15.5746.2859.8665.4171l.2779-.6702 3.9462-9.5333.0142-.0375c-.4286-.2297-.843-.5015-1.2291-.8155z" fill="#4d4d4d"/><path d="m13.0727 28.4593c-.0847-.0937-.1648-.1922-.2448-.2859-.0707-.0844-.1366-.1734-.2025-.2625-.0754-.1031-.1507-.2015-.2167-.3046-.0706-.1031-.1365-.211-.2025-.3141l-9.52187 5.7088c.14598.2437.29667.478.45208.7077.0047.0094.00941.0188.01412.0234 0 0 0 .0047.00471.0094.00471.0094.00942.0141.01413.0235.01413.0187.02355.0374.03767.0562.16482.2437.33435.4828.50859.7171 0 .0047.00942.0094.00942.0141s.00942.0093.00942.014c.07534.0985.15069.2016.23075.3.00942.0141.01883.0281.03296.0375.08006.1031.16482.2062.24488.3046.01883.0235.03767.0469.06122.0703.07534.0891.15069.1781.22604.2672.03296.0375.06592.075.09889.1125.06593.075.13185.15.19778.2203.03768.0422.07535.0797.11302.1218.01884.0188.03297.0375.0518.0563.0471.0515.0989.1031.14599.1593.01883.0188.04238.0422.06122.061.08476.089.17424.1781.26371.2671l7.85487-7.8178c-.0895-.0891-.1742-.1828-.259-.2719z" fill="#6ba43a"/><path d="m23.4847 29.2327c-.0848.0703-.1743.1359-.2638.2015l.0189.0328 5.7263 9.463c.2637-.1734.5274-.3515.7817-.539.5557-.4078 1.0926-.8483 1.6059-1.3217l-7.8455-7.8085-.033-.0328z" fill="#4d4d4d"/><path d="m28.2456 39.38s.0094-.0047.0141-.0094c0 0-.0094 0-.0141.0047z" fill="#93d500"/><path d="m28.255 39.3753c.0236-.0141.0518-.0281.0754-.0422-.0236.0141-.0471.0281-.0754.0422z" fill="#93d500"/><path d="m28.2408 39.3851.0051-.0051z" fill="#93d500"/><path d="m28.2362 39.3846-.0142-.0234z" fill="#93d500"/><path d="m28.2456 39.38s.0094 0 .0141-.0047c0 0-.0094 0-.0141.0047z" fill="#93d500"/><path d="m28.2314 39.3898.0051-.0052z" fill="#93d500"/><path d="m28.2411 39.3849h-.0049l.0099-.0049z" fill="#93d500"/><path d="m28.1373 39.0097-.1931-.3187-5.3449-8.8303c-.1083.0656-.2166.1219-.3297.1828-.113.0609-.226.1172-.339.1687-1.0266.4828-2.138.7312-3.254.7312-.73 0-1.4599-.1031-2.1616-.314-.1224-.0375-.2354-.0844-.3578-.1266-.1178-.0421-.2402-.0796-.3579-.1265l-3.9416 9.5286-.1554.375-.1319.3187s.0189.0094.033.014c.0094 0 .0235.0094.033.0141h.0094c.0942.0375.1883.0703.2825.1078.1178.0469.2355.0891.3532.1359.0612.0235.1177.0469.179.0703 1.2338.4359 2.5147.7359 3.8144.9093.0518.0047.0989.0141.1507.0188.0518.0046.1083.0093.1601.0187.0989.0094.1978.0234.3014.0328.0235 0 .0518 0 .0753.0047.1225.0094.2449.0234.3673.0328.0424 0 .0848.0047.1272.0094.1083.0094.2166.014.3249.0187.0659 0 .1319.0047.1978.0094.0848 0 .1695.0047.259.0094h.372.0895c1.036 0 2.0767-.0844 3.1033-.2578 0 0 .033-.0047.0518-.0094.1083-.0187.2167-.0375.325-.0609.0612-.0141.1224-.0235.1836-.0375.0612-.0141.1272-.0281.1884-.0375.1036-.0234.2119-.0469.3155-.0703.0188 0 .0377-.0094.0565-.0141 1.5587-.3609 3.0657-.9233 4.4831-1.6638.0942-.0469.1837-.1032.2732-.1547.1083-.0609.2213-.1219.3296-.1828.0753-.0422.1507-.0844.226-.1266 0 0 .0095-.0046.0142-.0093.0235-.0141.0471-.0282.0753-.0422l-.1931-.3234z" fill="#93d500"/><path d="m13.892 17.5668c.0848-.0703.1743-.1359.2637-.2015l-.0188-.0328-5.72634-9.46305c-.26371.17341-.52742.35152-.78643.539-.55568.40776-1.08781.84834-1.60582 1.32173l7.84549 7.80852.0329.0328z" fill="#93d500"/><path d="m5.47209 10.2504c-.08947.0891-.17424.1828-.259.2719-.08477.089-.17424.1781-.259.2718-.57923.6234-1.11137 1.2796-1.58699 1.9592-.02355.0328-.04709.0656-.07064.0984-.0518.0797-.10831.1547-.16011.2343-.05651.0797-.10831.1641-.16011.2485-.01884.0281-.03767.0609-.05651.089-1.80832 2.8122-2.773695 6.004-2.9008418 9.2287-.0047091.1265-.0094183.2484-.0094183.3749 0 .1266-.00470916.2484-.00470916.375h11.10893926c0-.1266.0141-.2484.0188-.375.0047-.1265.0094-.2484.0188-.3749.146-1.4389.7017-2.845 1.6765-4.0261.0801-.0938.1695-.1875.2543-.2766.0848-.0937.1648-.1875.2543-.2765z" fill="#4d4d4d"/><path d="m28.3963 7.50386s-.033-.01875-.0471-.02812c-.0989-.06093-.1978-.11717-.2967-.17342-.0565-.03281-.113-.06562-.1742-.09842-.0565-.03281-.1178-.06562-.1743-.09843-.0989-.05624-.2025-.1078-.3014-.16404-.0141-.00938-.0329-.01875-.0471-.02344-.6498-.33746-1.3185-.63743-2.0013-.89521-.0189-.00938-.0377-.01406-.0518-.01875-.1507-.05624-.2967-.11249-.4474-.16404-1.215-.42183-2.4676-.71711-3.7438-.88584-.0518-.00938-.1036-.01406-.1554-.01875s-.1036-.00938-.1554-.01875c-.0989-.00937-.2025-.02343-.3014-.03281-.0282 0-.0565 0-.0848-.00937-.1177-.00938-.2401-.02344-.3578-.02812-.0471 0-.0942-.00469-.1413-.00938-.1036-.00468-.2072-.01406-.3108-.01875-.0565 0-.1083 0-.1648-.00468v11.04256.0421c.5698.061 1.1396.1781 1.6858.3656l8.194-8.15532c-.3061-.21091-.6122-.41245-.9277-.60462z" fill="#4d4d4d"/><path d="m18.3092 4.80881c-.1271 0-.2495 0-.3767.00938-.7864.03281-1.5681.11248-2.3499.23903-.0188 0-.0329.00469-.0518.00938-.1083.01874-.2166.03749-.3249.06093-.0612.00937-.1224.02343-.1836.03749-.066.01406-.1272.02812-.1931.04219-.1036.02343-.2119.04687-.3155.0703 0 0-.0377.00937-.0565.01406-1.5588.3609-3.0657.92334-4.48316 1.66388-.09418.04687-.18366.10311-.27313.15467-.10831.06093-.22133.12186-.32964.18279-.08006.04687-.16482.08905-.24488.13592-.00471 0-.00942.00469-.01884.00938-.01883.01406-.04238.02343-.06592.03749l.19307.3234 5.538 9.1537c.1083-.0656.2166-.1219.3296-.1828.113-.061.2261-.1172.3391-.1688.7911-.3749 1.634-.6093 2.4864-.6936.1272-.0141.2496-.0235.3767-.0281.1272-.0047.2496-.0141.3768-.0141v-11.06596c-.1272 0-.2496.00469-.3768.00937z" fill="#6ba43a"/><path d="m37.353 22.4881c-.0047-.0984-.0094-.1968-.0188-.3 0-.0515-.0047-.0984-.0094-.1499-.0094-.1172-.0189-.2344-.0283-.3516 0-.0281-.0047-.0609-.0094-.089-.0141-.1312-.0283-.2625-.0424-.389 0-.0094 0-.0188 0-.0328 0-.0047 0-.0094 0-.0141-.0188-.1406-.0377-.2812-.0565-.4218 0 0 0-.0094 0-.0141-.1271-.8811-.3202-1.7529-.5745-2.6153 0-.0047 0-.0094-.0047-.0188-.0424-.1312-.0801-.2671-.1225-.3984-.0047-.0187-.0094-.0328-.0188-.0515-.0377-.1219-.08-.2391-.1224-.3562-.0094-.0328-.0236-.0656-.033-.0985-.0377-.1031-.0753-.2062-.113-.3093-.0188-.0469-.0377-.0984-.0565-.1453-.033-.0844-.0659-.1687-.0989-.2531-.0283-.0656-.0565-.1359-.0801-.2015-.0282-.0656-.0565-.1313-.0847-.1969-.0377-.0843-.0754-.1687-.1131-.2531-.0188-.0468-.0423-.0937-.0659-.1406-.0471-.0984-.0942-.2015-.1413-.3-.0141-.0281-.0282-.0609-.0423-.089-.0565-.1125-.1131-.225-.1696-.3422-.0094-.014-.0141-.0328-.0235-.0468-.0659-.1219-.1272-.2484-.1978-.3703 0 0 0-.0094-.0094-.0141-.3249-.5905-.6781-1.167-1.0643-1.7154l-8.1986 8.16c.1883.5484.3061 1.1108.3673 1.678h11.1371c0-.0563 0-.1078-.0047-.1641z" fill="#4d4d4d"/><path d="m26.2678 23.4021c0 .1265-.0095.2484-.0189.3749-.0047.1266-.0094.2484-.0188.375-.1413 1.4389-.7017 2.845-1.6765 4.0261-.08.0937-.1695.1875-.2543.2765-.0847.0938-.1648.1875-.2543.2766l7.8549 7.8178c.0895-.089.1743-.1827.259-.2718.0848-.0891.1743-.1781.259-.2718.5793-.6281 1.1114-1.2843 1.5917-1.9639.0189-.0281.0377-.0515.0565-.0797.0565-.0843.1131-.1687.1743-.2531.0518-.075.0989-.1499.1507-.2249.0235-.0375.0471-.075.0706-.1125 1.8036-2.8169 2.7643-6.0087 2.8961-9.2287.0047-.1265.0094-.2484.0094-.3749 0-.1266.0048-.2485.0048-.375h-11.1089z" fill="#6ba43a"/><path d="m40.6731 1.51858c-2.0344-2.024773-5.3261-2.024773-7.3604 0-1.62 1.61232-1.9449 4.02611-.9795 5.96184l-11.335 11.28158c-1.9448-.9609-4.3701-.6375-5.99.9749-2.0344 2.0247-2.0344 5.3009 0 7.3257 2.0343 2.0248 5.326 2.0201 7.3604 0 1.62-1.6123 1.9449-4.0261.9795-5.9618l11.3349-11.28158c1.9449.96078 4.3701.63738 5.9901-.97489 2.0344-2.02478 2.0344-5.30098 0-7.32575z" fill="#fff"/><path d="m43.0935 19.3947c0-5.5447 4.0734-9.51457 9.6679-9.51457s9.6444 3.96987 9.6444 9.51457-4.0735 9.5146-9.6444 9.5146-9.6679-3.9699-9.6679-9.5146zm15.2624 0c0-3.4449-2.1898-6.0415-5.5945-6.0415s-5.6227 2.5919-5.6227 6.0415 2.1897 6.0415 5.6227 6.0415 5.5945-2.62 5.5945-6.0415z" fill="#fff"/><path d="m64.4778 28.5811v-18.3963h8.646c4.0169 0 6.2067 2.7043 6.2067 5.929 0 3.2246-2.218 5.9009-6.2067 5.9009h-4.7092v6.5618h-3.9368zm10.8358-12.4673c0-1.542-1.1915-2.4841-2.7455-2.4841h-4.1582v4.9354h4.1582c1.554 0 2.7455-.9374 2.7455-2.456z" fill="#fff"/><path d="m81.1011 28.5811v-18.3963h13.0773v3.4449h-9.1452v3.8621h8.9474v3.4449h-8.9474v4.1901h9.1452v3.445h-13.0773z" fill="#fff"/><path d="m109.309 28.5811-8.811-11.9939v11.9939h-3.9367v-18.3963h4.0447l8.562 11.5534v-11.5534h3.937v18.3917h-3.796z" fill="#fff"/><path d="m129.034 28.5812-1.163-3.1168h-7.926l-1.163 3.1168h-4.459l7.12-18.3917h4.93l7.12 18.3917zm-5.128-14.4781-2.882 7.9163h5.764z" fill="#fff"/><path d="m134.52 28.5811v-18.3963h8.646c4.016 0 6.206 2.7043 6.206 5.929 0 3.2246-2.218 5.9009-6.206 5.9009h-4.71v6.5618h-3.932zm10.831-12.4673c0-1.542-1.192-2.4841-2.746-2.4841h-4.158v4.9354h4.158c1.554 0 2.746-.9374 2.746-2.456z" fill="#fff"/><path d="m151.138 28.5811v-18.3963h3.937v18.3917h-3.937z" fill="#fff"/><g fill="#6ba43a"><path d="m155.034 40.0313h-4.195v-5.8694h4.025v.9081h-2.978v1.5288h2.725v.9081h-2.725v1.6163h3.148z"/><path d="m144.171 40.0313-2.159-5.8694h1.096l1.304 3.9198c.07.2083.136.4194.2.6332.063.2111.105.3513.124.4208.003-.0084.007-.0237.013-.0459.008-.025.018-.0555.029-.0916.183-.5971.275-.9026.278-.9165l1.296-3.9198h1.092l-2.151 5.8694z"/><path d="m138.579 40.0313h-1.05v-5.8694h1.05z"/><path d="m132.19 40.0313h-1.047v-4.9613h-1.819v-.9081h4.689v.9081h-1.823z"/><path d="m127.014 40.0313h-1.051l-.503-1.4872h-2.417l-.507 1.4872h-1.059l2.164-5.8694h1.234zm-3.693-2.312h1.861l-.631-1.8662c-.169-.4943-.269-.7942-.299-.8998-.006.0223-.024.0778-.054.1667-.028.0861-.053.1652-.075.2374-.056.1583-.111.3249-.166.4999z"/><path d="m118.012 40.0313h-1.051v-5.8694h1.051z"/><path d="m111.622 40.0313h-1.047v-4.9613h-1.819v-.9081h4.689v.9081h-1.823z"/><path d="m105.241 40.0313h-1.051v-5.8694h1.051z"/><path d="m95.3544 40.0313v-5.8694h1.2543l2.6457 4.6947c-.0194-.4-.0291-.7679-.0291-1.1039v-3.5908h.9597v5.8694h-1.3002l-2.5959-4.6489c.0138.4082.0208.7443.0208 1.0081v3.6408z"/><path d="m91.349 40.0313h-1.0508v-5.8694h1.0508z"/></g></g></svg>