<svg fill="none" height="44" viewBox="0 0 44 44" width="44" xmlns="http://www.w3.org/2000/svg"><path d="m41.1643 12.3723c-.4599-1.7211-1.8152-3.07636-3.5363-3.53636-3.1197-.83594-15.628-.83594-15.628-.83594s-12.50836 0-15.62805.83594c-1.72078.46-3.07633 1.81526-3.53625 3.53636-.8357 3.1193-.8357 9.6279-.8357 9.6279s0 6.5085.8357 9.6275c.45992 1.7211 1.81547 3.0768 3.53625 3.5367 3.11969.8356 15.62805.8356 15.62805.8356s12.5083 0 15.628-.8356c1.7211-.4599 3.0764-1.8156 3.5363-3.5367.8356-3.119.8356-9.6275.8356-9.6275s0-6.5086-.8356-9.6279zm-23.1645 15.628v-12.0002l10.3921 6.0001z" fill="#fff" opacity=".48"/></svg>